<svg xmlns="http://www.w3.org/2000/svg" width="44.508" height="38.248"><g data-name="1077979" fill="#fff"><path data-name="Контур 27" d="M22.253 19.123a.869.869 0 10-.869-.869.87.87 0 00.869.869zm0 0"/><path data-name="Контур 28" d="M41.03 12.169h-5.14l-7.908-10.88a2.608 2.608 0 00-4.531 2.584.885.885 0 00.067.1l6.2 8.192H14.787l6.2-8.192a.932.932 0 00.067-.1 2.608 2.608 0 00-4.53-2.585L8.618 12.169H3.477a3.477 3.477 0 00-1.113 6.772.865.865 0 00.532.183.842.842 0 01.117.008.867.867 0 01.739.706l2.957 16.27a2.607 2.607 0 002.566 2.141h25.958a2.607 2.607 0 002.567-2.143l2.957-16.269a.867.867 0 01.74-.706.807.807 0 01.115-.008.864.864 0 00.534-.185 3.477 3.477 0 00-1.116-6.77zM24.947 2.984a.87.87 0 011.543-.8.817.817 0 00.057.09l7.193 9.9H31.9zm-6.987-.711a.933.933 0 00.057-.089.869.869 0 011.543.8l-6.954 9.185h-1.839zm23.07 15.111h-15.3a.865.865 0 100 1.73h13.423a2.639 2.639 0 00-.107.4l-2.958 16.285a.869.869 0 01-.855.714H9.274a.869.869 0 01-.856-.713L5.461 19.525a2.624 2.624 0 00-.107-.4h13.422a.87.87 0 100-1.739H3.477a1.739 1.739 0 010-3.477H41.03a1.739 1.739 0 110 3.477zm0 0"/><path data-name="Контур 29" d="M22.254 21.731a2.611 2.611 0 00-2.608 2.612v6.954a2.608 2.608 0 005.216 0v-6.954a2.607 2.607 0 00-2.608-2.612zm.869 9.562a.87.87 0 01-1.739 0v-6.95a.87.87 0 011.739 0zm0 0"/><path data-name="Контур 30" d="M30.947 33.901a2.611 2.611 0 002.608-2.608v-6.95a2.608 2.608 0 00-5.216 0v6.954a2.611 2.611 0 002.608 2.604zm-.869-9.562a.87.87 0 011.739 0v6.954a.87.87 0 01-1.739 0zm0 0"/><path data-name="Контур 31" d="M13.561 21.731a2.611 2.611 0 00-2.608 2.612v6.954a2.608 2.608 0 005.216 0v-6.954a2.607 2.607 0 00-2.608-2.612zm.869 9.562a.87.87 0 01-1.739 0v-6.95a.87.87 0 011.739 0zm0 0"/></g></svg>