<svg xmlns="http://www.w3.org/2000/svg" width="21.211" height="21.939"><g fill="#0d030e"><path data-name="Контур 136" d="M20.568 10.8h-2.142v-.96A2.53 2.53 0 0016.5 7.395V.643A.643.643 0 0015.855 0H.643A.643.643 0 000 .643v17.611a.643.643 0 00.643.643h9.9v.527a2.52 2.52 0 002.52 2.516h5.631a2.52 2.52 0 002.52-2.516v-7.983a.643.643 0 00-.643-.643zm-3.428-.96v.96h-2.528v-.96a1.264 1.264 0 012.528 0zM1.286 17.612V1.286h13.926v6.12a2.529 2.529 0 00-1.885 2.432v.96h-2.143a.643.643 0 00-.643.643v6.17zm18.64 1.812a1.234 1.234 0 01-1.234 1.23h-5.631a1.234 1.234 0 01-1.234-1.23v-7.34h1.5v1.693a.643.643 0 101.286 0v-1.693h2.527v1.693a.643.643 0 101.286 0v-1.693h1.5z"/><path data-name="Контур 137" d="M4.499 2.779l-.731.786-.049-.061a.643.643 0 00-1 .806l.515.641a.644.644 0 00.478.24h.023a.644.644 0 00.471-.205l1.238-1.33a.644.644 0 00-.942-.877z"/><path data-name="Контур 138" d="M7.539 4.632h5.748a.644.644 0 000-1.287H7.539a.644.644 0 100 1.287z"/><path data-name="Контур 139" d="M4.499 6.674l-.731.786-.049-.061a.643.643 0 00-1 .806l.515.641a.644.644 0 00.478.24h.023a.644.644 0 00.471-.2l1.238-1.33a.644.644 0 00-.942-.877z"/><path data-name="Контур 140" d="M7.54 8.421h3.6a.644.644 0 100-1.287h-3.6a.644.644 0 100 1.287z"/><path data-name="Контур 141" d="M4.499 10.573l-.731.786-.049-.061a.643.643 0 00-1 .806l.515.641a.644.644 0 00.478.24h.023a.644.644 0 00.471-.205l1.238-1.33a.644.644 0 00-.942-.877z"/><path data-name="Контур 142" d="M8.614 11.033H7.542a.644.644 0 100 1.287h1.072a.644.644 0 100-1.287z"/></g></svg>