<svg xmlns="http://www.w3.org/2000/svg" width="22" height="21.999"><g fill="#0d030e"><path data-name="Контур 148" d="M21.312 10.312h-8.708a.688.688 0 010-1.375h8.708a.688.688 0 010 1.375zm0 0"/><path data-name="Контур 149" d="M17.874 13.749a.688.688 0 01-.486-1.174l2.952-2.951-2.952-2.952a.688.688 0 11.973-.972l3.437 3.437a.688.688 0 010 .972l-3.437 3.437a.683.683 0 01-.487.203zm0 0"/><path data-name="Контур 150" d="M7.333 21.999a1.889 1.889 0 01-.568-.085l-5.517-1.838A1.85 1.85 0 010 18.333v-16.5A1.835 1.835 0 011.833 0 1.891 1.891 0 012.4.085l5.518 1.838a1.85 1.85 0 011.248 1.743v16.5a1.835 1.835 0 01-1.833 1.833zm-5.5-20.624a.46.46 0 00-.458.458v16.5a.476.476 0 00.318.442l5.491 1.83a.5.5 0 00.15.02.46.46 0 00.458-.458V3.666a.476.476 0 00-.318-.442L1.982 1.392a.5.5 0 00-.149-.02zm0 0"/><path data-name="Контур 151" d="M13.978 7.333a.688.688 0 01-.687-.687V2.521a1.147 1.147 0 00-1.146-1.146H1.833a.688.688 0 110-1.375h10.312a2.523 2.523 0 012.521 2.521v4.125a.688.688 0 01-.688.687zm0 0"/><path data-name="Контур 152" d="M12.145 19.249H8.479a.688.688 0 010-1.375h3.667a1.147 1.147 0 001.146-1.146v-4.125a.688.688 0 011.375 0v4.125a2.523 2.523 0 01-2.522 2.521zm0 0"/></g></svg>