<svg xmlns="http://www.w3.org/2000/svg" width="22.014" height="24.503"><path data-name="Контур 161" d="M17.45 17.4l-2.275-.758-.817-1.633a5.242 5.242 0 001.419-2.773l.1-.61h.871a1.437 1.437 0 001.436-1.436V7.179a7.179 7.179 0 10-14.357 0v3.015a1.438 1.438 0 00.957 1.353v.561a1.437 1.437 0 001.436 1.436h.42a5.192 5.192 0 00.8 1.243c.068.078.138.153.211.227l-.816 1.632-2.275.758A7.054 7.054 0 000 24.024a.479.479 0 00.479.479h21.057a.479.479 0 00.479-.479A7.054 7.054 0 0017.45 17.4zm-.221-7.21a.479.479 0 01-.479.479h-.73c.122-.942.2-1.945.235-2.933v-.082h.971zm-11.964.479a.479.479 0 01-.479-.479V7.657h.971q0 .075.005.151v.005c.034.961.114 1.937.232 2.859h-.731zm.957 1.914a.479.479 0 01-.479-.479v-.479h.392l.1.611c.019.116.043.232.071.347zM5.744 6.7H4.8a6.222 6.222 0 0112.406 0h-.94a4.847 4.847 0 00-4.835-4.786h-.857A4.847 4.847 0 005.744 6.7zm4.835-3.829h.857a3.891 3.891 0 013.879 3.9v.4l-.6-.086a7.69 7.69 0 01-4.323-2.162.479.479 0 00-.338-.14 4.33 4.33 0 00-3.329 1.575 3.89 3.89 0 013.854-3.487zM7.3 12.586a27.355 27.355 0 01-.574-4.645l.644-.859a3.369 3.369 0 012.491-1.335 8.656 8.656 0 004.716 2.287l.7.1c-.047 1-.143 2-.281 2.925-.044.3-.078.487-.167 1.02a4.065 4.065 0 01-2.885 3.269 3.765 3.765 0 01-4.227-1.808H8.7a1.438 1.438 0 001.353.957h.957a1.436 1.436 0 100-2.871h-.96a1.436 1.436 0 00-1.354.957zm2.71 3.734a4.8 4.8 0 001.78.04l-.846.894zm.276 1.63l-1.518 1.605A18.236 18.236 0 017.7 17.071l.57-1.14zm3.38-2.182l.651 1.3a18.228 18.228 0 01-1.072 2.485l-1.625-1.625zm-4.095-2.7a.479.479 0 01.479-.479h.957a.479.479 0 110 .957h-.957a.479.479 0 01-.479-.481zm-8.6 10.481a6.048 6.048 0 013.891-5.234l2.014-.671A19.185 19.185 0 008.244 20.6a19.19 19.19 0 001.31 2l.589.945zm10.031-.427l-.649-1.042-.023-.034a18.246 18.246 0 01-1.078-1.611l1.707-1.8 1.8 1.8a18.227 18.227 0 01-1.082 1.617c-.021.022.012-.027-.67 1.067zm.862.427l.589-.945a19.182 19.182 0 001.319-2.016l.007-.013a19.169 19.169 0 001.348-2.929l2.014.671a6.048 6.048 0 013.891 5.234h-9.163z" fill="#0d030e"/></svg>