<svg xmlns="http://www.w3.org/2000/svg" width="26.246" height="26.246"><path data-name="Контур 69" d="M13.123 0a13.123 13.123 0 1013.123 13.123A13.123 13.123 0 0013.123 0zm0 25.372a12.248 12.248 0 1112.249-12.249 12.248 12.248 0 01-12.249 12.249zm0 0" fill="#8374d5"/><path data-name="Контур 70" d="M19.248 7.874H6.999a.437.437 0 00-.437.437v9.624a.437.437 0 00.437.437h12.248a.437.437 0 00.437-.437V8.311a.437.437 0 00-.436-.437zm-1.181.875l-4.943 4.236-4.943-4.236zm-10.63 8.749V9.263l5.4 4.63a.437.437 0 00.569 0l5.4-4.63v8.235zm0 0" fill="#8374d5"/></svg>