<svg xmlns="http://www.w3.org/2000/svg" width="29.581" height="26.318"><path data-name="1077035" d="M14.791 26.318a1.735 1.735 0 01-1.144-.43 399.531 399.531 0 00-3.364-2.893h-.005A62.555 62.555 0 012.934 16.1 11.01 11.01 0 010 8.89a9.246 9.246 0 012.347-6.314A7.954 7.954 0 018.264 0a7.441 7.441 0 014.648 1.6 9.509 9.509 0 011.879 1.962A9.51 9.51 0 0116.67 1.6 7.441 7.441 0 0121.318 0a7.955 7.955 0 015.917 2.576 9.245 9.245 0 012.346 6.314 11.009 11.009 0 01-2.934 7.21 62.549 62.549 0 01-7.347 6.89c-1.018.868-2.172 1.851-3.37 2.9a1.736 1.736 0 01-1.143.429zM8.264 1.733A6.241 6.241 0 003.62 3.75a7.521 7.521 0 00-1.887 5.14 9.264 9.264 0 002.535 6.1 61.559 61.559 0 007.134 6.68h.005c1.02.87 2.177 1.855 3.381 2.908a617.229 617.229 0 013.392-2.907 61.574 61.574 0 007.133-6.68 9.265 9.265 0 002.535-6.1 7.521 7.521 0 00-1.888-5.14 6.24 6.24 0 00-4.643-2.017 5.747 5.747 0 00-3.587 1.241 8.408 8.408 0 00-2 2.314 1.094 1.094 0 01-1.879 0 8.4 8.4 0 00-2-2.314 5.747 5.747 0 00-3.587-1.242zm0 0" fill="#d3caff"/></svg>