<svg xmlns="http://www.w3.org/2000/svg" width="29.932" height="25.797"><path data-name="1077086" d="M27.558 2.525A8.171 8.171 0 0021.571 0a7.686 7.686 0 00-4.7 1.573 9.459 9.459 0 00-1.9 1.923 9.454 9.454 0 00-1.9-1.923A7.685 7.685 0 008.362 0a8.172 8.172 0 00-5.987 2.525A8.9 8.9 0 000 8.714a10.612 10.612 0 002.969 7.065 62.529 62.529 0 007.431 6.757c1.03.85 2.2 1.814 3.409 2.84a1.8 1.8 0 002.314 0 336.288 336.288 0 013.41-2.841 62.493 62.493 0 007.431-6.757 10.611 10.611 0 002.969-7.065 8.9 8.9 0 00-2.375-6.189zm0 0" fill="#d3caff"/></svg>