<svg xmlns="http://www.w3.org/2000/svg" width="31.75" height="31.75"><defs><linearGradient id="a" x1=".5" x2=".5" y2="1" gradientUnits="objectBoundingBox"><stop offset="0" stop-color="#e978ff"/><stop offset="1" stop-color="#944ca2"/></linearGradient></defs><path data-name="Контур 71" d="M212.973 209.987a2.987 2.987 0 11-2.986-2.987 2.987 2.987 0 012.986 2.987zm0 0" transform="translate(-194.112 -194.112)" fill="url(#a)"/><path data-name="Контур 72" d="M149.815 137.55a2.967 2.967 0 00-1.7-1.7 4.957 4.957 0 00-1.664-.308c-.945-.043-1.228-.052-3.621-.052s-2.676.009-3.621.052a4.96 4.96 0 00-1.664.309 2.968 2.968 0 00-1.7 1.7 4.959 4.959 0 00-.308 1.664c-.043.945-.052 1.228-.052 3.621s.009 2.676.052 3.621a4.957 4.957 0 00.308 1.664 2.967 2.967 0 001.7 1.7 4.951 4.951 0 001.664.309c.945.043 1.228.052 3.62.052s2.676-.009 3.621-.052a4.951 4.951 0 001.664-.309 2.967 2.967 0 001.7-1.7 4.962 4.962 0 00.309-1.664c.043-.945.052-1.228.052-3.621s-.009-2.676-.052-3.621a4.952 4.952 0 00-.308-1.665zm-6.985 9.885a4.6 4.6 0 114.6-4.6 4.6 4.6 0 01-4.6 4.6zm4.783-8.309a1.075 1.075 0 111.075-1.075 1.075 1.075 0 01-1.075 1.075zm0 0" transform="translate(-126.955 -126.959)" fill="url(#a)"/><path data-name="Контур 73" d="M15.875 0A15.875 15.875 0 1031.75 15.875 15.877 15.877 0 0015.875 0zm9.061 19.633a6.688 6.688 0 01-.424 2.213 4.661 4.661 0 01-2.666 2.666 6.693 6.693 0 01-2.213.424c-.972.044-1.283.055-3.758.055s-2.786-.011-3.758-.055a6.693 6.693 0 01-2.217-.424 4.661 4.661 0 01-2.666-2.666 6.686 6.686 0 01-.424-2.213c-.045-.972-.055-1.283-.055-3.758s.01-2.786.055-3.758A6.689 6.689 0 017.238 9.9 4.664 4.664 0 019.9 7.238a6.694 6.694 0 012.213-.424c.972-.044 1.283-.055 3.758-.055s2.786.011 3.758.055a6.7 6.7 0 012.213.423 4.662 4.662 0 012.67 2.663 6.687 6.687 0 01.424 2.213c.044.972.055 1.283.055 3.758s-.011 2.79-.055 3.762zm0 0" fill="url(#a)"/></svg>