<svg xmlns="http://www.w3.org/2000/svg" width="31" height="31"><g fill="none" stroke="#8374d5"><path data-name="Контур 36" d="M18.754 15.5a3.254 3.254 0 11-3.254-3.254 3.254 3.254 0 013.254 3.254zm0 0"/><path data-name="Контур 37" d="M23.112 9.743a3.233 3.233 0 00-1.853-1.853 5.4 5.4 0 00-1.812-.336c-1.03-.047-1.338-.057-3.945-.057s-2.915.01-3.945.057a5.4 5.4 0 00-1.812.336 3.234 3.234 0 00-1.853 1.853 5.4 5.4 0 00-.336 1.813c-.047 1.029-.057 1.338-.057 3.945s.01 2.915.057 3.945a5.4 5.4 0 00.336 1.812 3.233 3.233 0 001.853 1.853 5.394 5.394 0 001.813.336c1.029.047 1.338.057 3.944.057s2.916-.01 3.945-.057a5.394 5.394 0 001.813-.336 3.233 3.233 0 001.853-1.853 5.405 5.405 0 00.336-1.812c.047-1.03.057-1.338.057-3.945s-.01-2.915-.057-3.945a5.394 5.394 0 00-.337-1.813zm-7.61 10.77a5.013 5.013 0 115.013-5.013 5.013 5.013 0 01-5.015 5.009zm5.211-9.052a1.171 1.171 0 111.171-1.171 1.171 1.171 0 01-1.172 1.171zm0 0"/><path data-name="Контур 38" d="M15.5.5a15 15 0 1015 15 15 15 0 00-15-15zm8.561 18.551a6.319 6.319 0 01-.4 2.091 4.4 4.4 0 01-2.519 2.519 6.324 6.324 0 01-2.091.4c-.919.042-1.212.052-3.551.052s-2.633-.01-3.551-.052a6.324 6.324 0 01-2.091-.4 4.4 4.4 0 01-2.519-2.519 6.318 6.318 0 01-.4-2.091c-.039-.918-.052-1.212-.052-3.551s.01-2.633.052-3.551a6.32 6.32 0 01.4-2.091 4.407 4.407 0 012.519-2.519 6.325 6.325 0 012.091-.4c.919-.042 1.212-.052 3.551-.052s2.633.01 3.551.052a6.327 6.327 0 012.091.4 4.405 4.405 0 012.519 2.519 6.319 6.319 0 01.4 2.091c.042.919.052 1.212.052 3.551s-.013 2.633-.052 3.551zm0 0"/></g></svg>