<svg xmlns="http://www.w3.org/2000/svg" width="26.246" height="26.246"><g data-name="Сгруппировать 216"><g data-name="Сгруппировать 215"><path data-name="Контур 67" d="M22.191 3.73a13.286 13.286 0 00-18.46 0 13.286 13.286 0 0018.786 18.787 13.286 13.286 0 00-.326-18.787zm-.3 18.163a12.4 12.4 0 113.636-8.765 12.4 12.4 0 01-3.639 8.76z" fill="#8374d5"/></g></g><g data-name="Сгруппировать 218"><g data-name="Сгруппировать 217"><path data-name="Контур 68" d="M20.586 16.906l-2.489-2.48a1.448 1.448 0 00-2.048 0l-1.426 1.426a.314.314 0 01-.4.035 16.438 16.438 0 01-3.84-3.769.31.31 0 01.031-.4l1.462-1.462a1.448 1.448 0 000-2.046L9.387 5.721a1.484 1.484 0 00-2.051 0l-.788.788a4.429 4.429 0 00-1.1 4.517 13.285 13.285 0 001.621 3.286 17.226 17.226 0 004.974 4.885 12.678 12.678 0 003.685 1.639 4.266 4.266 0 001.027.124 4.482 4.482 0 003.158-1.329l.678-.678a1.448 1.448 0 00-.005-2.047zm-.627 1.442v-.013l-.678.678a3.543 3.543 0 01-3.344.957 11.773 11.773 0 01-3.419-1.532 16.374 16.374 0 01-4.712-4.619 12.4 12.4 0 01-1.515-3.065 3.543 3.543 0 01.886-3.618l.788-.788a.562.562 0 01.8 0l2.489 2.489a.562.562 0 010 .8l-1.462 1.462a1.191 1.191 0 00-.124 1.55 17.446 17.446 0 004.052 3.977 1.2 1.2 0 001.532-.133l1.414-1.439a.562.562 0 01.8 0l2.493 2.5a.562.562 0 010 .794z" fill="#8374d5"/></g></g></svg>