<svg xmlns="http://www.w3.org/2000/svg" width="15.228" height="18.252"><defs><linearGradient id="a" x1=".5" x2=".5" y2="1" gradientUnits="objectBoundingBox"><stop offset="0" stop-color="#fff"/><stop offset="1" stop-color="#d3caff"/></linearGradient></defs><g fill="url(#a)"><path data-name="Контур 56" d="M7.499 8.792A4.254 4.254 0 0010.607 7.5a4.254 4.254 0 001.288-3.1 4.254 4.254 0 00-1.288-3.108 4.4 4.4 0 00-6.217 0A4.254 4.254 0 003.103 4.4a4.254 4.254 0 001.288 3.1 4.255 4.255 0 003.108 1.292zm0 0"/><path data-name="Контур 57" d="M15.191 14.036a10.858 10.858 0 00-.148-1.153 9.087 9.087 0 00-.284-1.16 5.729 5.729 0 00-.477-1.081 4.081 4.081 0 00-.719-.937 3.169 3.169 0 00-1.033-.649 3.568 3.568 0 00-1.318-.239 1.338 1.338 0 00-.715.3c-.214.14-.465.3-.744.48a4.265 4.265 0 01-.963.424 3.74 3.74 0 01-2.356 0 4.256 4.256 0 01-.962-.424c-.277-.177-.528-.339-.745-.48a1.336 1.336 0 00-.714-.3 3.564 3.564 0 00-1.318.239 3.167 3.167 0 00-1.033.649 4.081 4.081 0 00-.719.937 5.739 5.739 0 00-.477 1.082 9.107 9.107 0 00-.284 1.159 10.82 10.82 0 00-.148 1.154c-.024.349-.036.712-.036 1.078a3.031 3.031 0 00.9 2.293 3.24 3.24 0 002.32.846h8.789a3.24 3.24 0 002.319-.846 3.03 3.03 0 00.9-2.293c0-.368-.013-.731-.037-1.078zm0 0"/></g></svg>