<svg xmlns="http://www.w3.org/2000/svg" width="31.75" height="34.667"><g fill="#8e24aa"><path data-name="Контур 171" d="M31.425 20.069c1.033-8.7-.5-14.189-3.256-16.673C23.72-.847 8.677-1.475 3.348 3.585.955 6.06.113 9.693.02 14.19s-.2 12.923 7.651 15.211h.007l-.007 3.491s-.053 1.414.85 1.7c1.033.335 1.5-.322 4.715-4.161a29.41 29.41 0 009.971-.758c1.085-.364 7.226-1.176 8.219-9.6zm-17.66 7.9s-3.4 4.242-4.459 5.343c-.346.358-.726.325-.72-.385 0-.466.026-5.8.026-5.8-6.658-1.9-6.265-9.076-6.192-12.829s.759-6.831 2.785-8.9c4.674-4.385 17.86-3.405 21.215-.247 4.107 3.641 2.645 13.928 2.654 14.279-.844 7.034-5.82 7.48-6.735 7.785a27.133 27.133 0 01-8.578.759z"/><path data-name="Контур 172" d="M15.782 6.281a.427.427 0 000 .853c4.21.032 7.677 2.967 7.715 8.349a.412.412 0 10.824-.007c-.045-5.8-3.831-9.162-8.538-9.195z"/><path data-name="Контур 173" d="M21.283 14.63a.413.413 0 10.824.02 5.708 5.708 0 00-5.608-6.11.428.428 0 00-.058.853 4.866 4.866 0 014.841 5.237z"/><path data-name="Контур 174" d="M20.522 18.361a1.4 1.4 0 00-1.775.244l-.642.796a1.178 1.178 0 01-.934.35 8.3 8.3 0 01-5.627-5.568 1.152 1.152 0 01.352-.925l.8-.634a1.369 1.369 0 00.246-1.757 18.342 18.342 0 00-2.192-3.036 1.221 1.221 0 00-1.594-.258h-.014c-1.274.713-2.669 2.048-2.223 3.422.762 1.449 2.161 6.067 6.622 9.557a25.8 25.8 0 006.822 3.732l.013.02c1.388.443 2.737-.944 3.457-2.2v-.01a1.173 1.173 0 00-.253-1.559 17.338 17.338 0 00-3.058-2.173z"/><path data-name="Контур 175" d="M17.05 11.723c1.354.079 2.011.786 2.082 2.239a.413.413 0 10.824-.039 2.829 2.829 0 00-2.86-3.052.427.427 0 00-.046.852z"/></g></svg>