<svg xmlns="http://www.w3.org/2000/svg" width="88.777" height="57.154"><path data-name="Контур 43" d="M79.948 8.943a10.227 10.227 0 00-7.194-7.2C66.366 0 40.814 0 40.814 0S15.263 0 8.875 1.682a10.436 10.436 0 00-7.194 7.261C0 15.331 0 28.577 0 28.577S0 41.89 1.681 48.211a10.229 10.229 0 007.2 7.2c6.455 1.748 31.939 1.748 31.939 1.748s25.551 0 31.939-1.682a10.227 10.227 0 007.2-7.194c1.681-6.388 1.681-19.634 1.681-19.634s.067-13.314-1.682-19.7zm0 0" fill="#0d030e" opacity=".62"/><path data-name="Контур 44" d="M33.421 40.815l21.248-12.238-21.248-12.238zm0 0" fill="#fff"/><path data-name="Контур 55" d="M79.652 49.37l8.952 3.3" fill="none" stroke="#fff"/></svg>