<svg xmlns="http://www.w3.org/2000/svg" width="22" height="21.999" viewBox="0 0 22 21.999">
  <g id="logout" transform="translate(0 -0.008)">
    <path id="Контур_148" data-name="Контур 148" d="M286.728,209.383h-8.708a.687.687,0,0,1,0-1.375h8.708a.687.687,0,0,1,0,1.375Zm0,0" transform="translate(-265.416 -199.063)" fill="#0d030e"/>
    <path id="Контур_149" data-name="Контур 149" d="M400.691,136.221a.688.688,0,0,1-.486-1.174l2.952-2.951-2.952-2.952a.688.688,0,1,1,.973-.972l3.437,3.437a.688.688,0,0,1,0,.972l-3.437,3.437A.683.683,0,0,1,400.691,136.221Zm0,0" transform="translate(-382.817 -122.464)" fill="#0d030e"/>
    <path id="Контур_150" data-name="Контур 150" d="M7.333,22.007a1.889,1.889,0,0,1-.568-.085L1.248,20.084A1.85,1.85,0,0,1,0,18.341V1.841A1.835,1.835,0,0,1,1.833.008,1.891,1.891,0,0,1,2.4.093L7.918,1.931A1.85,1.85,0,0,1,9.166,3.674v16.5a1.835,1.835,0,0,1-1.833,1.833ZM1.833,1.383a.46.46,0,0,0-.458.458v16.5a.476.476,0,0,0,.318.442l5.491,1.83a.5.5,0,0,0,.15.02.46.46,0,0,0,.458-.458V3.674a.476.476,0,0,0-.318-.442L1.982,1.4a.5.5,0,0,0-.149-.02Zm0,0" transform="translate(0 0)" fill="#0d030e"/>
    <path id="Контур_151" data-name="Контур 151" d="M39.5,7.341a.688.688,0,0,1-.687-.687V2.529a1.147,1.147,0,0,0-1.146-1.146H27.355a.687.687,0,1,1,0-1.375H37.667a2.523,2.523,0,0,1,2.521,2.521V6.654A.688.688,0,0,1,39.5,7.341Zm0,0" transform="translate(-25.522)" fill="#0d030e"/>
    <path id="Контур_152" data-name="Контур 152" d="M185.686,284.673H182.02a.688.688,0,0,1,0-1.375h3.667a1.147,1.147,0,0,0,1.146-1.146v-4.125a.687.687,0,0,1,1.375,0v4.125A2.523,2.523,0,0,1,185.686,284.673Zm0,0" transform="translate(-173.541 -265.416)" fill="#0d030e"/>
  </g>
</svg>
