<svg xmlns="http://www.w3.org/2000/svg" width="22.014" height="24.503" viewBox="0 0 22.014 24.503">
  <path id="Контур_161" data-name="Контур 161" d="M43.45,17.4l-2.275-.758-.817-1.633a5.242,5.242,0,0,0,1.419-2.773l.1-.61h.871a1.437,1.437,0,0,0,1.436-1.436V7.179a7.179,7.179,0,1,0-14.357,0v3.015a1.438,1.438,0,0,0,.957,1.353v.561a1.437,1.437,0,0,0,1.436,1.436h.42a5.192,5.192,0,0,0,.8,1.243c.068.078.138.153.211.227l-.816,1.632-2.275.758A7.054,7.054,0,0,0,26,24.024a.479.479,0,0,0,.479.479H47.536a.479.479,0,0,0,.479-.479A7.054,7.054,0,0,0,43.45,17.4Zm-.221-7.21a.479.479,0,0,1-.479.479h-.73c.122-.942.2-1.945.235-2.933,0-.028,0-.055,0-.082h.971Zm-11.964.479a.479.479,0,0,1-.479-.479V7.657h.971q0,.075.005.151v.005h0c.034.961.114,1.937.232,2.859h-.731Zm.957,1.914a.479.479,0,0,1-.479-.479v-.479h.392l.1.611c.019.116.043.232.071.347ZM31.744,6.7H30.8a6.222,6.222,0,0,1,12.406,0h-.94a4.847,4.847,0,0,0-4.835-4.786h-.857A4.847,4.847,0,0,0,31.744,6.7Zm4.835-3.829h.857a3.891,3.891,0,0,1,3.879,3.9c0,.151,0,.282,0,.4,0,0,0,0,0,0l-.6-.086a7.69,7.69,0,0,1-4.323-2.162.479.479,0,0,0-.338-.14,4.33,4.33,0,0,0-3.329,1.575A3.89,3.89,0,0,1,36.579,2.871ZM33.3,12.586a27.355,27.355,0,0,1-.574-4.645l.644-.859a3.369,3.369,0,0,1,2.491-1.335,8.656,8.656,0,0,0,4.716,2.287l.7.1c-.047,1-.143,2-.281,2.925h0c-.044.3-.078.487-.167,1.02a4.065,4.065,0,0,1-2.885,3.269,3.765,3.765,0,0,1-4.227-1.808H34.7a1.438,1.438,0,0,0,1.353.957h.957a1.436,1.436,0,1,0,0-2.871H36.05a1.436,1.436,0,0,0-1.354.957Zm2.71,3.734a4.8,4.8,0,0,0,1.78.04l-.846.894Zm.276,1.63-1.518,1.605A18.236,18.236,0,0,1,33.7,17.071l.57-1.14Zm3.38-2.182.651,1.3a18.228,18.228,0,0,1-1.072,2.485l-1.625-1.625Zm-4.095-2.7a.479.479,0,0,1,.479-.479h.957a.479.479,0,1,1,0,.957H36.05A.479.479,0,0,1,35.571,13.065Zm-8.6,10.481a6.048,6.048,0,0,1,3.891-5.234l2.014-.671A19.185,19.185,0,0,0,34.244,20.6l0,0h0a19.19,19.19,0,0,0,1.31,2l.589.945Zm10.031-.427-.649-1.042q-.011-.018-.023-.034a18.246,18.246,0,0,1-1.078-1.611l1.707-1.8,1.8,1.8a18.227,18.227,0,0,1-1.082,1.617C37.656,22.074,37.689,22.025,37.007,23.119Zm.862.427.589-.945a19.182,19.182,0,0,0,1.319-2.016l.007-.013v0a19.169,19.169,0,0,0,1.348-2.929l2.014.671a6.048,6.048,0,0,1,3.891,5.234H37.869Z" transform="translate(-26 0)" fill="#0d030e"/>
</svg>
