<svg xmlns="http://www.w3.org/2000/svg" width="21.211" height="21.939" viewBox="0 0 21.211 21.939">
  <g id="check-list" transform="translate(-8.5)">
    <path id="Контур_136" data-name="Контур 136" d="M29.068,10.8H26.926v-.96A2.53,2.53,0,0,0,25,7.395V.643A.643.643,0,0,0,24.355,0H9.143A.643.643,0,0,0,8.5.643V18.254a.643.643,0,0,0,.643.643h9.9v.527a2.52,2.52,0,0,0,2.52,2.516h5.631a2.52,2.52,0,0,0,2.52-2.516V11.441a.643.643,0,0,0-.643-.643Zm-3.428-.96v.96H23.112v-.96a1.264,1.264,0,0,1,2.528,0ZM9.786,17.612V1.286H23.712V7.406a2.529,2.529,0,0,0-1.885,2.432v.96H19.684a.643.643,0,0,0-.643.643v6.17Zm18.64,1.812a1.234,1.234,0,0,1-1.234,1.23H21.561a1.234,1.234,0,0,1-1.234-1.23v-7.34h1.5v1.693a.643.643,0,1,0,1.286,0V12.084H25.64v1.693a.643.643,0,1,0,1.286,0V12.084h1.5Z" transform="translate(0 0)" fill="#0d030e"/>
    <path id="Контур_137" data-name="Контур 137" d="M70.424,60.205l-.731.786-.049-.061a.643.643,0,0,0-1,.806l.515.641a.644.644,0,0,0,.478.24h.023a.644.644,0,0,0,.471-.205l1.238-1.33a.643.643,0,0,0-.942-.877Z" transform="translate(-57.425 -57.426)" fill="#0d030e"/>
    <path id="Контур_138" data-name="Контур 138" d="M170.144,76.787h5.748a.643.643,0,0,0,0-1.287h-5.748a.643.643,0,1,0,0,1.287Z" transform="translate(-154.105 -72.155)" fill="#0d030e"/>
    <path id="Контур_139" data-name="Контур 139" d="M70.424,151.205l-.731.786-.049-.061a.643.643,0,0,0-1,.806l.515.641a.644.644,0,0,0,.478.24h.023a.644.644,0,0,0,.471-.2l1.238-1.33a.643.643,0,0,0-.942-.877Z" transform="translate(-57.425 -144.531)" fill="#0d030e"/>
    <path id="Контур_140" data-name="Контур 140" d="M170.143,167.787h3.6a.643.643,0,1,0,0-1.287h-3.6a.643.643,0,1,0,0,1.287Z" transform="translate(-154.103 -159.366)" fill="#0d030e"/>
    <path id="Контур_141" data-name="Контур 141" d="M70.424,242.205l-.731.786-.049-.061a.643.643,0,0,0-1,.806l.515.641a.644.644,0,0,0,.478.24h.023a.644.644,0,0,0,.471-.205l1.238-1.33a.643.643,0,0,0-.942-.877Z" transform="translate(-57.425 -231.632)" fill="#0d030e"/>
    <path id="Контур_142" data-name="Контур 142" d="M171.216,257.5h-1.072a.643.643,0,1,0,0,1.287h1.072a.643.643,0,1,0,0-1.287Z" transform="translate(-154.102 -246.467)" fill="#0d030e"/>
  </g>
</svg>
