<svg xmlns="http://www.w3.org/2000/svg" width="22" height="20.35" viewBox="0 0 22 20.35">
  <g id="wallet" transform="translate(0 -19.098)">
    <path id="Контур_159" data-name="Контур 159" d="M19.987,23.768h-.274V21.11A2.014,2.014,0,0,0,17.7,19.1H3.108A3.111,3.111,0,0,0,.016,21.9C-.007,22.012,0,21.023,0,36.342a3.11,3.11,0,0,0,3.107,3.107h16.88A2.014,2.014,0,0,0,22,37.436V25.781a2.014,2.014,0,0,0-2.012-2.012ZM3.108,20.48H17.7a.631.631,0,0,1,.63.63v2.658H3.108a1.646,1.646,0,1,1,0-3.288Zm16.88,17.586H3.108a1.726,1.726,0,0,1-1.725-1.725V24.627a3.089,3.089,0,0,0,1.725.524h16.88a.631.631,0,0,1,.63.63v2.8h-5.2a3.212,3.212,0,1,0,0,6.424h5.2v2.43a.631.631,0,0,1-.63.63Zm.63-4.442h-5.2a1.83,1.83,0,1,1,0-3.66h5.2Z" transform="translate(0)" fill="#0d030e"/>
    <circle id="Эллипс_49" data-name="Эллипс 49" cx="1.001" cy="1.001" r="1.001" transform="translate(14.671 30.793)"/>
  </g>
</svg>
