<svg id="email" xmlns="http://www.w3.org/2000/svg" width="26.246" height="26.246" viewBox="0 0 26.246 26.246">
  <path id="Контур_69" data-name="Контур 69" d="M13.123,0A13.123,13.123,0,1,0,26.246,13.123,13.123,13.123,0,0,0,13.123,0Zm0,25.372A12.248,12.248,0,1,1,25.372,13.123,12.248,12.248,0,0,1,13.123,25.372Zm0,0" fill="#8374d5"/>
  <path id="Контур_70" data-name="Контур 70" d="M132.686,144H120.437a.437.437,0,0,0-.437.437v9.624a.437.437,0,0,0,.437.437h12.248a.437.437,0,0,0,.437-.437v-9.624A.437.437,0,0,0,132.686,144Zm-1.181.875-4.943,4.236-4.943-4.236Zm-10.63,8.749v-8.235l5.4,4.63a.437.437,0,0,0,.569,0l5.4-4.63v8.235Zm0,0" transform="translate(-113.438 -136.126)" fill="#8374d5"/>
</svg>
