<svg xmlns="http://www.w3.org/2000/svg" width="17.525" height="15.132" viewBox="0 0 17.525 15.132">
  <g id="Сгруппировать_177" data-name="Сгруппировать 177" transform="translate(0 0)">
    <path id="Контур_131" data-name="Контур 131" d="M231.147,160.065l2.509,2.509.012-.131a2.391,2.391,0,0,0-2.389-2.389Z" transform="translate(-222.518 -155.274)" fill="#d3caff"/>
    <path id="Контур_132" data-name="Контур 132" d="M152.829,66.045a3.984,3.984,0,0,1,3.982,3.982,3.921,3.921,0,0,1-.283,1.453l2.33,2.33a9.459,9.459,0,0,0,2.736-3.783,9.425,9.425,0,0,0-8.765-5.973,9.314,9.314,0,0,0-3.174.557l1.72,1.716A4,4,0,0,1,152.829,66.045Z" transform="translate(-144.068 -62.859)" fill="#d3caff"/>
    <path id="Контур_133" data-name="Контур 133" d="M.8,33.068l1.816,1.816.362.362A9.433,9.433,0,0,0,0,39.221a9.408,9.408,0,0,0,12.253,5.3l.338.338,2.322,2.326,1.015-1.011L1.812,32.053Zm4.4,4.4,1.23,1.23a2.524,2.524,0,0,0-.06.522A2.391,2.391,0,0,0,8.761,41.61a2.455,2.455,0,0,0,.518-.06l1.23,1.23a3.918,3.918,0,0,1-1.748.422A3.956,3.956,0,0,1,5.2,37.469Z" transform="translate(0 -32.053)" fill="#d3caff"/>
  </g>
</svg>
