<svg xmlns="http://www.w3.org/2000/svg" width="29.932" height="25.797" viewBox="0 0 29.932 25.797">
  <path id="_1077086" data-name="1077086" d="M27.558,2.525A8.171,8.171,0,0,0,21.571,0a7.686,7.686,0,0,0-4.7,1.573,9.459,9.459,0,0,0-1.9,1.923,9.454,9.454,0,0,0-1.9-1.923A7.685,7.685,0,0,0,8.362,0,8.172,8.172,0,0,0,2.375,2.525,8.9,8.9,0,0,0,0,8.714a10.612,10.612,0,0,0,2.969,7.065A62.529,62.529,0,0,0,10.4,22.536c1.03.85,2.2,1.814,3.409,2.84a1.8,1.8,0,0,0,2.314,0c1.212-1.027,2.38-1.991,3.41-2.841a62.493,62.493,0,0,0,7.431-6.757,10.611,10.611,0,0,0,2.969-7.065,8.9,8.9,0,0,0-2.375-6.189Zm0,0" transform="translate(0)" fill="#d3caff"/>
</svg>
