<svg xmlns="http://www.w3.org/2000/svg" width="29.581" height="26.318" viewBox="0 0 29.581 26.318">
  <path id="_1077035" data-name="1077035" d="M14.791,26.318a1.735,1.735,0,0,1-1.144-.43c-1.2-1.045-2.347-2.027-3.364-2.893l-.005,0A62.555,62.555,0,0,1,2.934,16.1,11.01,11.01,0,0,1,0,8.89,9.246,9.246,0,0,1,2.347,2.576,7.954,7.954,0,0,1,8.264,0a7.441,7.441,0,0,1,4.648,1.6,9.509,9.509,0,0,1,1.879,1.962A9.51,9.51,0,0,1,16.67,1.6,7.441,7.441,0,0,1,21.318,0a7.955,7.955,0,0,1,5.917,2.576A9.245,9.245,0,0,1,29.581,8.89,11.009,11.009,0,0,1,26.647,16.1,62.549,62.549,0,0,1,19.3,22.99c-1.018.868-2.172,1.851-3.37,2.9a1.736,1.736,0,0,1-1.143.429ZM8.264,1.733A6.241,6.241,0,0,0,3.62,3.75,7.521,7.521,0,0,0,1.733,8.89a9.264,9.264,0,0,0,2.535,6.1,61.559,61.559,0,0,0,7.134,6.68l.005,0c1.02.87,2.177,1.855,3.381,2.908C16,23.53,17.158,22.542,18.18,21.671a61.574,61.574,0,0,0,7.133-6.68,9.265,9.265,0,0,0,2.535-6.1,7.521,7.521,0,0,0-1.888-5.14,6.24,6.24,0,0,0-4.643-2.017A5.747,5.747,0,0,0,17.73,2.975a8.408,8.408,0,0,0-2,2.314,1.094,1.094,0,0,1-1.879,0,8.4,8.4,0,0,0-2-2.314A5.747,5.747,0,0,0,8.264,1.733Zm0,0" transform="translate(0)" fill="#d3caff"/>
</svg>
