<svg xmlns="http://www.w3.org/2000/svg" width="31" height="31" viewBox="0 0 31 31">
  <g id="instagram" transform="translate(0.5 0.5)">
    <path id="Контур_36" data-name="Контур 36" d="M213.508,210.254A3.254,3.254,0,1,1,210.254,207,3.254,3.254,0,0,1,213.508,210.254Zm0,0" transform="translate(-195.254 -195.254)" fill="none" stroke="#8374d5" stroke-width="1"/>
    <path id="Контур_37" data-name="Контур 37" d="M151.1,137.734a3.233,3.233,0,0,0-1.853-1.853,5.4,5.4,0,0,0-1.812-.336c-1.03-.047-1.338-.057-3.945-.057s-2.915.01-3.945.057a5.4,5.4,0,0,0-1.812.336,3.234,3.234,0,0,0-1.853,1.853,5.4,5.4,0,0,0-.336,1.813c-.047,1.029-.057,1.338-.057,3.945s.01,2.915.057,3.945a5.4,5.4,0,0,0,.336,1.812,3.233,3.233,0,0,0,1.853,1.853,5.394,5.394,0,0,0,1.813.336c1.029.047,1.338.057,3.944.057s2.916-.01,3.945-.057a5.394,5.394,0,0,0,1.813-.336,3.233,3.233,0,0,0,1.853-1.853,5.405,5.405,0,0,0,.336-1.812c.047-1.03.057-1.338.057-3.945s-.01-2.915-.057-3.945A5.394,5.394,0,0,0,151.1,137.734Zm-7.61,10.77a5.013,5.013,0,1,1,5.013-5.013A5.013,5.013,0,0,1,143.488,148.5Zm5.211-9.052a1.171,1.171,0,1,1,1.171-1.171A1.171,1.171,0,0,1,148.7,139.452Zm0,0" transform="translate(-128.488 -128.491)" fill="none" stroke="#8374d5" stroke-width="1"/>
    <path id="Контур_38" data-name="Контур 38" d="M15,0A15,15,0,1,0,30,15,15,15,0,0,0,15,0Zm8.561,18.551a6.319,6.319,0,0,1-.4,2.091,4.4,4.4,0,0,1-2.519,2.519,6.324,6.324,0,0,1-2.091.4c-.919.042-1.212.052-3.551.052s-2.633-.01-3.551-.052a6.324,6.324,0,0,1-2.091-.4,4.4,4.4,0,0,1-2.519-2.519,6.318,6.318,0,0,1-.4-2.091C6.4,17.633,6.387,17.339,6.387,15s.01-2.633.052-3.551a6.32,6.32,0,0,1,.4-2.091A4.407,4.407,0,0,1,9.358,6.839a6.325,6.325,0,0,1,2.091-.4c.919-.042,1.212-.052,3.551-.052s2.633.01,3.551.052a6.327,6.327,0,0,1,2.091.4,4.405,4.405,0,0,1,2.519,2.519,6.319,6.319,0,0,1,.4,2.091c.042.919.052,1.212.052,3.551S23.6,17.633,23.561,18.551Zm0,0" fill="none" stroke="#8374d5" stroke-width="1"/>
  </g>
</svg>
