<svg id="instagram" xmlns="http://www.w3.org/2000/svg" xmlns:xlink="http://www.w3.org/1999/xlink" width="31.75" height="31.75" viewBox="0 0 31.75 31.75">
  <defs>
    <linearGradient id="linear-gradient" x1="0.5" x2="0.5" y2="1" gradientUnits="objectBoundingBox">
      <stop offset="0" stop-color="#e978ff"/>
      <stop offset="1" stop-color="#944ca2"/>
    </linearGradient>
  </defs>
  <path id="Контур_71" data-name="Контур 71" d="M212.973,209.987A2.987,2.987,0,1,1,209.987,207,2.987,2.987,0,0,1,212.973,209.987Zm0,0" transform="translate(-194.112 -194.112)" fill="url(#linear-gradient)"/>
  <path id="Контур_72" data-name="Контур 72" d="M149.815,137.55a2.967,2.967,0,0,0-1.7-1.7,4.957,4.957,0,0,0-1.664-.308c-.945-.043-1.228-.052-3.621-.052s-2.676.009-3.621.052a4.96,4.96,0,0,0-1.664.309,2.968,2.968,0,0,0-1.7,1.7,4.959,4.959,0,0,0-.308,1.664c-.043.945-.052,1.228-.052,3.621s.009,2.676.052,3.621a4.957,4.957,0,0,0,.308,1.664,2.967,2.967,0,0,0,1.7,1.7,4.951,4.951,0,0,0,1.664.309c.945.043,1.228.052,3.62.052s2.676-.009,3.621-.052a4.951,4.951,0,0,0,1.664-.309,2.967,2.967,0,0,0,1.7-1.7,4.962,4.962,0,0,0,.309-1.664c.043-.945.052-1.228.052-3.621s-.009-2.676-.052-3.621A4.952,4.952,0,0,0,149.815,137.55Zm-6.985,9.885a4.6,4.6,0,1,1,4.6-4.6A4.6,4.6,0,0,1,142.83,147.435Zm4.783-8.309a1.075,1.075,0,1,1,1.075-1.075A1.075,1.075,0,0,1,147.613,139.126Zm0,0" transform="translate(-126.955 -126.959)" fill="url(#linear-gradient)"/>
  <path id="Контур_73" data-name="Контур 73" d="M15.875,0A15.875,15.875,0,1,0,31.75,15.875,15.877,15.877,0,0,0,15.875,0Zm9.061,19.633a6.688,6.688,0,0,1-.424,2.213,4.661,4.661,0,0,1-2.666,2.666,6.693,6.693,0,0,1-2.213.424c-.972.044-1.283.055-3.758.055s-2.786-.011-3.758-.055A6.693,6.693,0,0,1,9.9,24.512a4.661,4.661,0,0,1-2.666-2.666,6.686,6.686,0,0,1-.424-2.213c-.045-.972-.055-1.283-.055-3.758s.01-2.786.055-3.758A6.689,6.689,0,0,1,7.238,9.9,4.664,4.664,0,0,1,9.9,7.238a6.694,6.694,0,0,1,2.213-.424c.972-.044,1.283-.055,3.758-.055s2.786.011,3.758.055a6.7,6.7,0,0,1,2.213.423A4.662,4.662,0,0,1,24.512,9.9a6.687,6.687,0,0,1,.424,2.213c.044.972.055,1.283.055,3.758S24.98,18.661,24.936,19.633Zm0,0" fill="url(#linear-gradient)"/>
</svg>
