<svg xmlns="http://www.w3.org/2000/svg" width="26.246" height="26.246" viewBox="0 0 26.246 26.246">
  <g id="phone-call" transform="translate(0.001)">
    <g id="Сгруппировать_216" data-name="Сгруппировать 216" transform="translate(-0.001)">
      <g id="Сгруппировать_215" data-name="Сгруппировать 215">
        <path id="Контур_67" data-name="Контур 67" d="M22.19,3.73a13.286,13.286,0,0,0-18.46,0A13.286,13.286,0,0,0,22.516,22.517,13.286,13.286,0,0,0,22.19,3.73Zm-.3,18.163,0,0a12.4,12.4,0,1,1,3.636-8.765A12.4,12.4,0,0,1,21.887,21.888Z" transform="translate(0.001 0)" fill="#8374d5"/>
      </g>
    </g>
    <g id="Сгруппировать_218" data-name="Сгруппировать 218" transform="translate(5.226 5.307)">
      <g id="Сгруппировать_217" data-name="Сгруппировать 217">
        <path id="Контур_68" data-name="Контур 68" d="M116.071,113.852l-2.489-2.48a1.448,1.448,0,0,0-2.048,0l0,0-1.426,1.426a.314.314,0,0,1-.4.035,16.438,16.438,0,0,1-3.84-3.769.31.31,0,0,1,.031-.4l1.462-1.462a1.448,1.448,0,0,0,0-2.046l-2.489-2.489a1.484,1.484,0,0,0-2.051,0l-.788.788a4.429,4.429,0,0,0-1.1,4.517,13.285,13.285,0,0,0,1.621,3.286,17.226,17.226,0,0,0,4.974,4.885,12.678,12.678,0,0,0,3.685,1.639,4.266,4.266,0,0,0,1.027.124,4.482,4.482,0,0,0,3.158-1.329l.678-.678A1.448,1.448,0,0,0,116.071,113.852Zm-.627,1.442,0,0,0-.013-.678.678a3.543,3.543,0,0,1-3.344.957,11.773,11.773,0,0,1-3.419-1.532,16.374,16.374,0,0,1-4.712-4.619,12.4,12.4,0,0,1-1.515-3.065,3.543,3.543,0,0,1,.886-3.618l.788-.788a.562.562,0,0,1,.8,0l0,0,2.489,2.489a.562.562,0,0,1,0,.8l0,0-1.462,1.462a1.191,1.191,0,0,0-.124,1.55,17.446,17.446,0,0,0,4.052,3.977,1.2,1.2,0,0,0,1.532-.133L112.151,112a.562.562,0,0,1,.8,0l0,0,2.493,2.5A.562.562,0,0,1,115.444,115.294Z" transform="translate(-100.712 -102.253)" fill="#8374d5"/>
      </g>
    </g>
  </g>
</svg>
