<svg xmlns="http://www.w3.org/2000/svg" xmlns:xlink="http://www.w3.org/1999/xlink" width="15.228" height="18.252" viewBox="0 0 15.228 18.252">
  <defs>
    <linearGradient id="linear-gradient" x1="0.5" x2="0.5" y2="1" gradientUnits="objectBoundingBox">
      <stop offset="0" stop-color="#fff"/>
      <stop offset="1" stop-color="#d3caff"/>
    </linearGradient>
  </defs>
  <g id="avatar" transform="translate(0 0)">
    <path id="Контур_56" data-name="Контур 56" d="M91.428,8.792A4.254,4.254,0,0,0,94.536,7.5,4.254,4.254,0,0,0,95.824,4.4a4.254,4.254,0,0,0-1.288-3.108,4.4,4.4,0,0,0-6.217,0A4.254,4.254,0,0,0,87.032,4.4,4.254,4.254,0,0,0,88.32,7.5,4.255,4.255,0,0,0,91.428,8.792Zm0,0" transform="translate(-83.929 0)" fill="url(#linear-gradient)"/>
    <path id="Контур_57" data-name="Контур 57" d="M15.191,252.535a10.858,10.858,0,0,0-.148-1.153,9.087,9.087,0,0,0-.284-1.16,5.729,5.729,0,0,0-.477-1.081,4.081,4.081,0,0,0-.719-.937,3.169,3.169,0,0,0-1.033-.649,3.568,3.568,0,0,0-1.318-.239,1.338,1.338,0,0,0-.715.3c-.214.14-.465.3-.744.48a4.265,4.265,0,0,1-.963.424,3.74,3.74,0,0,1-2.356,0,4.256,4.256,0,0,1-.962-.424c-.277-.177-.528-.339-.745-.48a1.336,1.336,0,0,0-.714-.3,3.564,3.564,0,0,0-1.318.239,3.167,3.167,0,0,0-1.033.649,4.081,4.081,0,0,0-.719.937,5.739,5.739,0,0,0-.477,1.082,9.107,9.107,0,0,0-.284,1.159,10.82,10.82,0,0,0-.148,1.154c-.024.349-.036.712-.036,1.078a3.031,3.031,0,0,0,.9,2.293,3.24,3.24,0,0,0,2.32.846h8.789a3.24,3.24,0,0,0,2.319-.846,3.03,3.03,0,0,0,.9-2.293c0-.368-.013-.731-.037-1.078Zm0,0" transform="translate(0 -238.499)" fill="url(#linear-gradient)"/>
  </g>
</svg>
