<svg xmlns="http://www.w3.org/2000/svg" width="31.75" height="34.667" viewBox="0 0 31.75 34.667">
  <g id="viber" transform="translate(-1.38 0.013)">
    <path id="Контур_171" data-name="Контур 171" d="M32.805,20.056c1.033-8.7-.5-14.189-3.256-16.673h0C25.1-.86,10.057-1.488,4.728,3.572,2.335,6.047,1.493,9.68,1.4,14.177S1.2,27.1,9.051,29.388h.007l-.007,3.491s-.053,1.414.85,1.7c1.033.335,1.5-.322,4.715-4.161a29.41,29.41,0,0,0,9.971-.758c1.085-.364,7.226-1.176,8.219-9.6Zm-17.66,7.9s-3.4,4.242-4.459,5.343c-.346.358-.726.325-.72-.385,0-.466.026-5.8.026-5.8C3.334,25.214,3.727,18.038,3.8,14.285s.759-6.831,2.785-8.9C11.259,1,24.445,1.98,27.8,5.138c4.107,3.641,2.645,13.928,2.654,14.279-.844,7.034-5.82,7.48-6.735,7.785a27.133,27.133,0,0,1-8.578.759Z" transform="translate(0 0)" fill="#8e24aa"/>
    <path id="Контур_172" data-name="Контур 172" d="M12.34,4.3a.427.427,0,0,0,0,.853c4.21.032,7.677,2.967,7.715,8.349a.412.412,0,1,0,.824-.007h0c-.045-5.8-3.831-9.162-8.538-9.195Z" transform="translate(4.822 1.968)" fill="#8e24aa"/>
    <path id="Контур_173" data-name="Контур 173" d="M17.667,11.962a.413.413,0,1,0,.824.02,5.708,5.708,0,0,0-5.608-6.11.428.428,0,0,0-.058.853,4.866,4.866,0,0,1,4.841,5.237Z" transform="translate(4.996 2.655)" fill="#8e24aa"/>
    <path id="Контур_174" data-name="Контур 174" d="M19.917,15.96a1.4,1.4,0,0,0-1.775.244L17.5,17a1.178,1.178,0,0,1-.934.35,8.3,8.3,0,0,1-5.627-5.568,1.152,1.152,0,0,1,.352-.925l.8-.634a1.369,1.369,0,0,0,.246-1.757A18.342,18.342,0,0,0,10.145,5.43a1.221,1.221,0,0,0-1.594-.258H8.537C7.263,5.885,5.868,7.22,6.314,8.594c.762,1.449,2.161,6.067,6.622,9.557a25.8,25.8,0,0,0,6.822,3.732l.013.02c1.388.443,2.737-.944,3.457-2.2v-.01a1.173,1.173,0,0,0-.253-1.559,17.338,17.338,0,0,0-3.058-2.173Z" transform="translate(1.985 2.388)" fill="#8e24aa"/>
    <path id="Контур_175" data-name="Контур 175" d="M13.281,8.352c1.354.079,2.011.786,2.082,2.239a.413.413,0,1,0,.824-.039A2.829,2.829,0,0,0,13.327,7.5.427.427,0,0,0,13.281,8.352Z" transform="translate(5.149 3.358)" fill="#8e24aa"/>
  </g>
</svg>
