<svg id="whatsapp" xmlns="http://www.w3.org/2000/svg" width="31.75" height="31" viewBox="0 0 31.75 31">
  <path id="Контур_176" data-name="Контур 176" d="M15.879,0h-.008A15.7,15.7,0,0,0,0,15.5a15.143,15.143,0,0,0,3.022,9.085L1.044,30.343l6.1-1.9A16.011,16.011,0,0,0,15.879,31,15.706,15.706,0,0,0,31.75,15.5,15.706,15.706,0,0,0,15.879,0Z" fill="#4caf50"/>
  <path id="Контур_177" data-name="Контур 177" d="M126.029,131.887c-.389,1.056-1.934,1.932-3.166,2.187-.843.172-1.944.31-5.651-1.166-4.741-1.887-7.794-6.516-8.032-6.816a8.676,8.676,0,0,1-1.916-4.675,4.871,4.871,0,0,1,1.65-3.772,2.4,2.4,0,0,1,1.65-.556c.2,0,.379.01.54.017.474.019.712.047,1.024.765.389.9,1.337,3.125,1.45,3.354a.891.891,0,0,1,.069.839,2.682,2.682,0,0,1-.522.711c-.238.263-.464.465-.7.748-.218.246-.464.51-.19.965a13.855,13.855,0,0,0,2.618,3.125,11.975,11.975,0,0,0,3.783,2.242,1.052,1.052,0,0,0,1.137-.172,18.848,18.848,0,0,0,1.26-1.6.921.921,0,0,1,1.158-.337c.436.145,2.741,1.24,3.215,1.467s.786.337.9.529A3.719,3.719,0,0,1,126.029,131.887Z" transform="translate(-100.77 -109.999)" fill="#fafafa"/>
</svg>
