<svg xmlns="http://www.w3.org/2000/svg" width="88.777" height="57.154" viewBox="0 0 88.777 57.154">
  <g id="youtube" transform="translate(0 -51)">
    <path id="Контур_43" data-name="Контур 43" d="M79.948,8.943a10.227,10.227,0,0,0-7.194-7.2C66.366,0,40.814,0,40.814,0S15.263,0,8.875,1.682A10.436,10.436,0,0,0,1.681,8.943C0,15.331,0,28.577,0,28.577S0,41.89,1.681,48.211a10.229,10.229,0,0,0,7.2,7.2c6.455,1.748,31.939,1.748,31.939,1.748s25.551,0,31.939-1.682a10.227,10.227,0,0,0,7.2-7.194c1.681-6.388,1.681-19.634,1.681-19.634s.067-13.314-1.682-19.7Zm0,0" transform="translate(0 51)" fill="#0d030e" opacity="0.62"/>
    <path id="Контур_44" data-name="Контур 44" d="M204.969,126.96l21.248-12.238-21.248-12.238Zm0,0" transform="translate(-171.548 -35.145)" fill="#fff"/>
    <path id="Контур_55" data-name="Контур 55" d="M9.335,4.262l8.952,3.3" transform="translate(70.317 96.108)" fill="none" stroke="#fff" stroke-width="1"/>
  </g>
</svg>
